<mxfile host="app.diagrams.net" agent="Mozilla/5.0 (Windows NT 10.0; Win64; x64) AppleWebKit/537.36 (KHTML, like Gecko) Chrome/133.0.0.0 Safari/537.36 Edg/133.0.0.0" version="26.0.16" pages="2">
  <diagram name="context" id="KnS4JE3iBnHBovFroMV0">
    <mxGraphModel dx="1666" dy="747" grid="1" gridSize="10" guides="1" tooltips="1" connect="1" arrows="1" fold="1" page="1" pageScale="1" pageWidth="850" pageHeight="1100" math="0" shadow="0">
      <root>
        <mxCell id="0" />
        <mxCell id="1" parent="0" />
        <mxCell id="xjYZBRXBWgU6Q--IITgw-6" value="Customer" style="html=1;dashed=0;whiteSpace=wrap;shape=mxgraph.dfd.externalEntity" vertex="1" parent="1">
          <mxGeometry x="375" y="70" width="100" height="100" as="geometry" />
        </mxCell>
        <mxCell id="xjYZBRXBWgU6Q--IITgw-8" value="" style="endArrow=classic;html=1;rounded=0;exitX=0;exitY=0;exitDx=100;exitDy=55;exitPerimeter=0;entryX=0.003;entryY=0.537;entryDx=0;entryDy=0;entryPerimeter=0;" edge="1" parent="1" source="iyEX-RFopdoUeC1FhHCU-2" target="xjYZBRXBWgU6Q--IITgw-1">
          <mxGeometry width="50" height="50" relative="1" as="geometry">
            <mxPoint x="212.94000000000005" y="398.94000000000005" as="sourcePoint" />
            <mxPoint x="360" y="366" as="targetPoint" />
          </mxGeometry>
        </mxCell>
        <mxCell id="xjYZBRXBWgU6Q--IITgw-9" value="menu/truck/account info" style="edgeLabel;html=1;align=center;verticalAlign=middle;resizable=0;points=[];" vertex="1" connectable="0" parent="xjYZBRXBWgU6Q--IITgw-8">
          <mxGeometry x="0.0329" y="-2" relative="1" as="geometry">
            <mxPoint x="-3" y="-7" as="offset" />
          </mxGeometry>
        </mxCell>
        <mxCell id="xjYZBRXBWgU6Q--IITgw-14" value="" style="endArrow=classic;html=1;rounded=0;exitX=0.23;exitY=1.01;exitDx=0;exitDy=0;exitPerimeter=0;entryX=0.25;entryY=0;entryDx=0;entryDy=0;" edge="1" parent="1" source="xjYZBRXBWgU6Q--IITgw-6" target="xjYZBRXBWgU6Q--IITgw-1">
          <mxGeometry width="50" height="50" relative="1" as="geometry">
            <mxPoint x="400" y="410" as="sourcePoint" />
            <mxPoint x="450" y="360" as="targetPoint" />
          </mxGeometry>
        </mxCell>
        <mxCell id="xjYZBRXBWgU6Q--IITgw-15" value="order" style="edgeLabel;html=1;align=center;verticalAlign=middle;resizable=0;points=[];" vertex="1" connectable="0" parent="xjYZBRXBWgU6Q--IITgw-14">
          <mxGeometry x="-0.1008" y="-2" relative="1" as="geometry">
            <mxPoint as="offset" />
          </mxGeometry>
        </mxCell>
        <mxCell id="xjYZBRXBWgU6Q--IITgw-16" value="" style="endArrow=classic;html=1;rounded=0;exitX=0.75;exitY=0;exitDx=0;exitDy=0;entryX=0;entryY=0;entryDx=77.5;entryDy=100;entryPerimeter=0;" edge="1" parent="1" source="xjYZBRXBWgU6Q--IITgw-1" target="xjYZBRXBWgU6Q--IITgw-6">
          <mxGeometry width="50" height="50" relative="1" as="geometry">
            <mxPoint x="400" y="410" as="sourcePoint" />
            <mxPoint x="450" y="360" as="targetPoint" />
          </mxGeometry>
        </mxCell>
        <mxCell id="xjYZBRXBWgU6Q--IITgw-17" value="status notification" style="edgeLabel;html=1;align=center;verticalAlign=middle;resizable=0;points=[];" vertex="1" connectable="0" parent="xjYZBRXBWgU6Q--IITgw-16">
          <mxGeometry x="0.0182" y="-2" relative="1" as="geometry">
            <mxPoint x="1" y="16" as="offset" />
          </mxGeometry>
        </mxCell>
        <mxCell id="xjYZBRXBWgU6Q--IITgw-18" value="" style="endArrow=classic;html=1;rounded=0;exitX=0.995;exitY=0.4;exitDx=0;exitDy=0;entryX=-0.03;entryY=0.38;entryDx=0;entryDy=0;entryPerimeter=0;exitPerimeter=0;" edge="1" parent="1" source="xjYZBRXBWgU6Q--IITgw-1" target="iyEX-RFopdoUeC1FhHCU-3">
          <mxGeometry width="50" height="50" relative="1" as="geometry">
            <mxPoint x="400" y="410" as="sourcePoint" />
            <mxPoint x="620" y="330.05999999999995" as="targetPoint" />
          </mxGeometry>
        </mxCell>
        <mxCell id="xjYZBRXBWgU6Q--IITgw-19" value="order" style="edgeLabel;html=1;align=center;verticalAlign=middle;resizable=0;points=[];" vertex="1" connectable="0" parent="xjYZBRXBWgU6Q--IITgw-18">
          <mxGeometry relative="1" as="geometry">
            <mxPoint y="-3" as="offset" />
          </mxGeometry>
        </mxCell>
        <mxCell id="xjYZBRXBWgU6Q--IITgw-22" value="" style="endArrow=classic;html=1;rounded=0;entryX=1.003;entryY=0.695;entryDx=0;entryDy=0;exitX=-0.02;exitY=0.76;exitDx=0;exitDy=0;exitPerimeter=0;entryPerimeter=0;" edge="1" parent="1" source="iyEX-RFopdoUeC1FhHCU-3" target="xjYZBRXBWgU6Q--IITgw-1">
          <mxGeometry width="50" height="50" relative="1" as="geometry">
            <mxPoint x="620" y="367.5" as="sourcePoint" />
            <mxPoint x="370" y="344.71" as="targetPoint" />
          </mxGeometry>
        </mxCell>
        <mxCell id="xjYZBRXBWgU6Q--IITgw-23" value="order status update" style="edgeLabel;html=1;align=center;verticalAlign=middle;resizable=0;points=[];" vertex="1" connectable="0" parent="xjYZBRXBWgU6Q--IITgw-22">
          <mxGeometry x="-0.051" relative="1" as="geometry">
            <mxPoint y="-5" as="offset" />
          </mxGeometry>
        </mxCell>
        <mxCell id="xjYZBRXBWgU6Q--IITgw-24" value="&lt;font style=&quot;font-size: 18px;&quot;&gt;&lt;b&gt;Queue-less: Food Truck Edition&lt;/b&gt;&lt;/font&gt;&lt;div&gt;&lt;font size=&quot;3&quot;&gt;&lt;b&gt;Context Diagram&lt;/b&gt;&lt;/font&gt;&lt;/div&gt;" style="text;html=1;align=left;verticalAlign=middle;whiteSpace=wrap;rounded=0;" vertex="1" parent="1">
          <mxGeometry x="10" y="60" width="360" height="30" as="geometry" />
        </mxCell>
        <mxCell id="iyEX-RFopdoUeC1FhHCU-2" value="Food Truck Manager" style="html=1;dashed=0;whiteSpace=wrap;shape=mxgraph.dfd.externalEntity" vertex="1" parent="1">
          <mxGeometry x="110" y="295" width="100" height="100" as="geometry" />
        </mxCell>
        <mxCell id="iyEX-RFopdoUeC1FhHCU-3" value="Food Truck" style="html=1;dashed=0;whiteSpace=wrap;shape=mxgraph.dfd.externalEntity" vertex="1" parent="1">
          <mxGeometry x="630" y="295" width="100" height="100" as="geometry" />
        </mxCell>
        <mxCell id="HloljtnLB8RxgD2_vO7w-1" value="" style="group" vertex="1" connectable="0" parent="1">
          <mxGeometry x="370" y="280" width="110" height="130" as="geometry" />
        </mxCell>
        <mxCell id="xjYZBRXBWgU6Q--IITgw-1" value="&lt;div&gt;&lt;br&gt;&lt;/div&gt;FOOD TRUCK ORDER MANAGEMENT SYSTEM" style="rounded=1;whiteSpace=wrap;html=1;" vertex="1" parent="HloljtnLB8RxgD2_vO7w-1">
          <mxGeometry width="110" height="130" as="geometry" />
        </mxCell>
        <mxCell id="xjYZBRXBWgU6Q--IITgw-2" value="" style="endArrow=none;html=1;rounded=0;exitX=0;exitY=0.25;exitDx=0;exitDy=0;entryX=1;entryY=0.25;entryDx=0;entryDy=0;" edge="1" parent="HloljtnLB8RxgD2_vO7w-1" source="xjYZBRXBWgU6Q--IITgw-1" target="xjYZBRXBWgU6Q--IITgw-1">
          <mxGeometry width="50" height="50" relative="1" as="geometry">
            <mxPoint x="30" y="130" as="sourcePoint" />
            <mxPoint x="80" y="80" as="targetPoint" />
          </mxGeometry>
        </mxCell>
        <mxCell id="xjYZBRXBWgU6Q--IITgw-3" value="0" style="text;html=1;align=center;verticalAlign=middle;whiteSpace=wrap;rounded=0;" vertex="1" parent="HloljtnLB8RxgD2_vO7w-1">
          <mxGeometry x="25" width="60" height="30" as="geometry" />
        </mxCell>
      </root>
    </mxGraphModel>
  </diagram>
  <diagram id="DFdz_iu7FEYEczkaFGwR" name="dfd0">
    <mxGraphModel dx="1666" dy="747" grid="1" gridSize="10" guides="1" tooltips="1" connect="1" arrows="1" fold="1" page="1" pageScale="1" pageWidth="850" pageHeight="1100" math="0" shadow="0">
      <root>
        <mxCell id="0" />
        <mxCell id="1" parent="0" />
        <mxCell id="rP2d1UbQnjie4H1maKtV-1" value="Food Truck Manager" style="html=1;dashed=0;whiteSpace=wrap;shape=mxgraph.dfd.externalEntity" vertex="1" parent="1">
          <mxGeometry x="60" y="230" width="100" height="100" as="geometry" />
        </mxCell>
        <mxCell id="DoY7gFXGSeMOmu--qUyc-1" value="" style="group" vertex="1" connectable="0" parent="1">
          <mxGeometry x="320" y="80" width="110" height="130" as="geometry" />
        </mxCell>
        <mxCell id="DoY7gFXGSeMOmu--qUyc-2" value="&lt;div&gt;&lt;br&gt;&lt;/div&gt;Manage Accounts" style="rounded=1;whiteSpace=wrap;html=1;" vertex="1" parent="DoY7gFXGSeMOmu--qUyc-1">
          <mxGeometry width="110" height="130" as="geometry" />
        </mxCell>
        <mxCell id="DoY7gFXGSeMOmu--qUyc-3" value="" style="endArrow=none;html=1;rounded=0;exitX=0;exitY=0.25;exitDx=0;exitDy=0;entryX=1;entryY=0.25;entryDx=0;entryDy=0;" edge="1" parent="DoY7gFXGSeMOmu--qUyc-1" source="DoY7gFXGSeMOmu--qUyc-2" target="DoY7gFXGSeMOmu--qUyc-2">
          <mxGeometry width="50" height="50" relative="1" as="geometry">
            <mxPoint x="30" y="130" as="sourcePoint" />
            <mxPoint x="80" y="80" as="targetPoint" />
          </mxGeometry>
        </mxCell>
        <mxCell id="DoY7gFXGSeMOmu--qUyc-4" value="1" style="text;html=1;align=center;verticalAlign=middle;whiteSpace=wrap;rounded=0;" vertex="1" parent="DoY7gFXGSeMOmu--qUyc-1">
          <mxGeometry x="25" width="60" height="30" as="geometry" />
        </mxCell>
        <mxCell id="DoY7gFXGSeMOmu--qUyc-5" value="" style="group" vertex="1" connectable="0" parent="1">
          <mxGeometry x="320" y="250" width="110" height="130" as="geometry" />
        </mxCell>
        <mxCell id="DoY7gFXGSeMOmu--qUyc-6" value="&lt;div&gt;&lt;br&gt;&lt;/div&gt;Manage Trucks" style="rounded=1;whiteSpace=wrap;html=1;" vertex="1" parent="DoY7gFXGSeMOmu--qUyc-5">
          <mxGeometry width="110" height="130" as="geometry" />
        </mxCell>
        <mxCell id="DoY7gFXGSeMOmu--qUyc-7" value="" style="endArrow=none;html=1;rounded=0;exitX=0;exitY=0.25;exitDx=0;exitDy=0;entryX=1;entryY=0.25;entryDx=0;entryDy=0;" edge="1" parent="DoY7gFXGSeMOmu--qUyc-5" source="DoY7gFXGSeMOmu--qUyc-6" target="DoY7gFXGSeMOmu--qUyc-6">
          <mxGeometry width="50" height="50" relative="1" as="geometry">
            <mxPoint x="30" y="130" as="sourcePoint" />
            <mxPoint x="80" y="80" as="targetPoint" />
          </mxGeometry>
        </mxCell>
        <mxCell id="DoY7gFXGSeMOmu--qUyc-8" value="2" style="text;html=1;align=center;verticalAlign=middle;whiteSpace=wrap;rounded=0;" vertex="1" parent="DoY7gFXGSeMOmu--qUyc-5">
          <mxGeometry x="25" width="60" height="30" as="geometry" />
        </mxCell>
        <mxCell id="DoY7gFXGSeMOmu--qUyc-9" value="" style="group" vertex="1" connectable="0" parent="1">
          <mxGeometry x="320" y="440" width="110" height="130" as="geometry" />
        </mxCell>
        <mxCell id="DoY7gFXGSeMOmu--qUyc-10" value="&lt;div&gt;Manage Menus&lt;/div&gt;" style="rounded=1;whiteSpace=wrap;html=1;" vertex="1" parent="DoY7gFXGSeMOmu--qUyc-9">
          <mxGeometry width="110" height="130" as="geometry" />
        </mxCell>
        <mxCell id="DoY7gFXGSeMOmu--qUyc-11" value="" style="endArrow=none;html=1;rounded=0;exitX=0;exitY=0.25;exitDx=0;exitDy=0;entryX=1;entryY=0.25;entryDx=0;entryDy=0;" edge="1" parent="DoY7gFXGSeMOmu--qUyc-9" source="DoY7gFXGSeMOmu--qUyc-10" target="DoY7gFXGSeMOmu--qUyc-10">
          <mxGeometry width="50" height="50" relative="1" as="geometry">
            <mxPoint x="30" y="130" as="sourcePoint" />
            <mxPoint x="80" y="80" as="targetPoint" />
          </mxGeometry>
        </mxCell>
        <mxCell id="DoY7gFXGSeMOmu--qUyc-12" value="3" style="text;html=1;align=center;verticalAlign=middle;whiteSpace=wrap;rounded=0;" vertex="1" parent="DoY7gFXGSeMOmu--qUyc-9">
          <mxGeometry x="25" width="60" height="30" as="geometry" />
        </mxCell>
        <mxCell id="DoY7gFXGSeMOmu--qUyc-13" value="" style="group" vertex="1" connectable="0" parent="1">
          <mxGeometry x="320" y="610" width="110" height="130" as="geometry" />
        </mxCell>
        <mxCell id="DoY7gFXGSeMOmu--qUyc-14" value="&lt;div&gt;Manage Orders&lt;/div&gt;" style="rounded=1;whiteSpace=wrap;html=1;" vertex="1" parent="DoY7gFXGSeMOmu--qUyc-13">
          <mxGeometry width="110" height="130" as="geometry" />
        </mxCell>
        <mxCell id="DoY7gFXGSeMOmu--qUyc-15" value="" style="endArrow=none;html=1;rounded=0;exitX=0;exitY=0.25;exitDx=0;exitDy=0;entryX=1;entryY=0.25;entryDx=0;entryDy=0;" edge="1" parent="DoY7gFXGSeMOmu--qUyc-13" source="DoY7gFXGSeMOmu--qUyc-14" target="DoY7gFXGSeMOmu--qUyc-14">
          <mxGeometry width="50" height="50" relative="1" as="geometry">
            <mxPoint x="30" y="130" as="sourcePoint" />
            <mxPoint x="80" y="80" as="targetPoint" />
          </mxGeometry>
        </mxCell>
        <mxCell id="DoY7gFXGSeMOmu--qUyc-16" value="4" style="text;html=1;align=center;verticalAlign=middle;whiteSpace=wrap;rounded=0;" vertex="1" parent="DoY7gFXGSeMOmu--qUyc-13">
          <mxGeometry x="25" width="60" height="30" as="geometry" />
        </mxCell>
        <mxCell id="DoY7gFXGSeMOmu--qUyc-17" value="Food Truck" style="html=1;dashed=0;whiteSpace=wrap;shape=mxgraph.dfd.externalEntity" vertex="1" parent="1">
          <mxGeometry x="330" y="810" width="100" height="100" as="geometry" />
        </mxCell>
        <mxCell id="DoY7gFXGSeMOmu--qUyc-18" value="Customer" style="html=1;dashed=0;whiteSpace=wrap;shape=mxgraph.dfd.externalEntity" vertex="1" parent="1">
          <mxGeometry x="60" y="610" width="100" height="100" as="geometry" />
        </mxCell>
        <mxCell id="DoY7gFXGSeMOmu--qUyc-19" value="" style="endArrow=classic;html=1;rounded=0;exitX=0;exitY=0;exitDx=22.5;exitDy=0;exitPerimeter=0;entryX=0;entryY=0.25;entryDx=0;entryDy=0;edgeStyle=orthogonalEdgeStyle;" edge="1" parent="1" source="rP2d1UbQnjie4H1maKtV-1" target="DoY7gFXGSeMOmu--qUyc-2">
          <mxGeometry width="50" height="50" relative="1" as="geometry">
            <mxPoint x="400" y="370" as="sourcePoint" />
            <mxPoint x="450" y="320" as="targetPoint" />
          </mxGeometry>
        </mxCell>
        <mxCell id="DoY7gFXGSeMOmu--qUyc-20" value="account info" style="edgeLabel;html=1;align=center;verticalAlign=middle;resizable=0;points=[];" vertex="1" connectable="0" parent="DoY7gFXGSeMOmu--qUyc-19">
          <mxGeometry x="-0.3255" y="1" relative="1" as="geometry">
            <mxPoint x="155" y="-1" as="offset" />
          </mxGeometry>
        </mxCell>
        <mxCell id="DoY7gFXGSeMOmu--qUyc-21" value="PostgreSQL&lt;div&gt;DB&lt;/div&gt;" style="shape=cylinder3;whiteSpace=wrap;html=1;boundedLbl=1;backgroundOutline=1;size=15;" vertex="1" parent="1">
          <mxGeometry x="580" y="230" width="170" height="105" as="geometry" />
        </mxCell>
        <mxCell id="DoY7gFXGSeMOmu--qUyc-26" value="" style="endArrow=classic;html=1;rounded=0;exitX=0.997;exitY=0.535;exitDx=0;exitDy=0;exitPerimeter=0;entryX=0;entryY=0.25;entryDx=0;entryDy=0;" edge="1" parent="1" source="rP2d1UbQnjie4H1maKtV-1" target="DoY7gFXGSeMOmu--qUyc-6">
          <mxGeometry width="50" height="50" relative="1" as="geometry">
            <mxPoint x="400" y="470" as="sourcePoint" />
            <mxPoint x="450" y="420" as="targetPoint" />
          </mxGeometry>
        </mxCell>
        <mxCell id="DoY7gFXGSeMOmu--qUyc-27" value="truck info" style="edgeLabel;html=1;align=center;verticalAlign=middle;resizable=0;points=[];" vertex="1" connectable="0" parent="DoY7gFXGSeMOmu--qUyc-26">
          <mxGeometry x="0.0817" relative="1" as="geometry">
            <mxPoint y="-11" as="offset" />
          </mxGeometry>
        </mxCell>
        <mxCell id="DoY7gFXGSeMOmu--qUyc-29" value="" style="endArrow=classic;startArrow=classic;html=1;rounded=0;entryX=0.5;entryY=0;entryDx=0;entryDy=0;entryPerimeter=0;exitX=1;exitY=0.25;exitDx=0;exitDy=0;edgeStyle=orthogonalEdgeStyle;" edge="1" parent="1" source="DoY7gFXGSeMOmu--qUyc-2" target="DoY7gFXGSeMOmu--qUyc-21">
          <mxGeometry width="50" height="50" relative="1" as="geometry">
            <mxPoint x="400" y="470" as="sourcePoint" />
            <mxPoint x="450" y="420" as="targetPoint" />
          </mxGeometry>
        </mxCell>
        <mxCell id="DoY7gFXGSeMOmu--qUyc-30" value="Manager" style="edgeLabel;html=1;align=center;verticalAlign=middle;resizable=0;points=[];" vertex="1" connectable="0" parent="DoY7gFXGSeMOmu--qUyc-29">
          <mxGeometry x="-0.6358" y="-3" relative="1" as="geometry">
            <mxPoint x="-14" y="-5" as="offset" />
          </mxGeometry>
        </mxCell>
        <mxCell id="DoY7gFXGSeMOmu--qUyc-31" value="" style="endArrow=classic;startArrow=classic;html=1;rounded=0;exitX=1;exitY=0.25;exitDx=0;exitDy=0;entryX=0;entryY=0.5;entryDx=0;entryDy=0;entryPerimeter=0;" edge="1" parent="1" source="DoY7gFXGSeMOmu--qUyc-6" target="DoY7gFXGSeMOmu--qUyc-21">
          <mxGeometry width="50" height="50" relative="1" as="geometry">
            <mxPoint x="400" y="470" as="sourcePoint" />
            <mxPoint x="450" y="420" as="targetPoint" />
          </mxGeometry>
        </mxCell>
        <mxCell id="DoY7gFXGSeMOmu--qUyc-32" value="Truck" style="edgeLabel;html=1;align=center;verticalAlign=middle;resizable=0;points=[];" vertex="1" connectable="0" parent="DoY7gFXGSeMOmu--qUyc-31">
          <mxGeometry x="-0.1175" y="3" relative="1" as="geometry">
            <mxPoint x="-16" y="1" as="offset" />
          </mxGeometry>
        </mxCell>
        <mxCell id="DoY7gFXGSeMOmu--qUyc-33" value="" style="endArrow=classic;html=1;rounded=0;exitX=0;exitY=0;exitDx=77.5;exitDy=100;exitPerimeter=0;entryX=0;entryY=0.25;entryDx=0;entryDy=0;edgeStyle=orthogonalEdgeStyle;" edge="1" parent="1" source="rP2d1UbQnjie4H1maKtV-1" target="DoY7gFXGSeMOmu--qUyc-10">
          <mxGeometry width="50" height="50" relative="1" as="geometry">
            <mxPoint x="400" y="470" as="sourcePoint" />
            <mxPoint x="450" y="420" as="targetPoint" />
          </mxGeometry>
        </mxCell>
        <mxCell id="DoY7gFXGSeMOmu--qUyc-34" value="menu info" style="edgeLabel;html=1;align=center;verticalAlign=middle;resizable=0;points=[];" vertex="1" connectable="0" parent="DoY7gFXGSeMOmu--qUyc-33">
          <mxGeometry x="0.6554" y="3" relative="1" as="geometry">
            <mxPoint y="1" as="offset" />
          </mxGeometry>
        </mxCell>
        <mxCell id="DoY7gFXGSeMOmu--qUyc-35" value="" style="endArrow=classic;html=1;rounded=0;exitX=0;exitY=0;exitDx=32.5;exitDy=100;exitPerimeter=0;entryX=0;entryY=0.75;entryDx=0;entryDy=0;edgeStyle=orthogonalEdgeStyle;" edge="1" parent="1" source="rP2d1UbQnjie4H1maKtV-1" target="DoY7gFXGSeMOmu--qUyc-10">
          <mxGeometry width="50" height="50" relative="1" as="geometry">
            <mxPoint x="148" y="310" as="sourcePoint" />
            <mxPoint x="290" y="493" as="targetPoint" />
          </mxGeometry>
        </mxCell>
        <mxCell id="DoY7gFXGSeMOmu--qUyc-36" value="product info" style="edgeLabel;html=1;align=center;verticalAlign=middle;resizable=0;points=[];" vertex="1" connectable="0" parent="DoY7gFXGSeMOmu--qUyc-35">
          <mxGeometry x="0.6554" y="3" relative="1" as="geometry">
            <mxPoint x="15" y="1" as="offset" />
          </mxGeometry>
        </mxCell>
        <mxCell id="DoY7gFXGSeMOmu--qUyc-37" value="" style="endArrow=classic;startArrow=classic;html=1;rounded=0;exitX=1;exitY=0.25;exitDx=0;exitDy=0;entryX=0.145;entryY=1;entryDx=0;entryDy=-4.35;entryPerimeter=0;edgeStyle=orthogonalEdgeStyle;" edge="1" parent="1" source="DoY7gFXGSeMOmu--qUyc-10" target="DoY7gFXGSeMOmu--qUyc-21">
          <mxGeometry width="50" height="50" relative="1" as="geometry">
            <mxPoint x="400" y="470" as="sourcePoint" />
            <mxPoint x="450" y="420" as="targetPoint" />
          </mxGeometry>
        </mxCell>
        <mxCell id="DoY7gFXGSeMOmu--qUyc-38" value="Menu" style="edgeLabel;html=1;align=center;verticalAlign=middle;resizable=0;points=[];" vertex="1" connectable="0" parent="DoY7gFXGSeMOmu--qUyc-37">
          <mxGeometry x="-0.8199" y="1" relative="1" as="geometry">
            <mxPoint x="56" y="-1" as="offset" />
          </mxGeometry>
        </mxCell>
        <mxCell id="DoY7gFXGSeMOmu--qUyc-39" value="" style="endArrow=classic;startArrow=classic;html=1;rounded=0;exitX=1;exitY=0.75;exitDx=0;exitDy=0;entryX=0.5;entryY=1;entryDx=0;entryDy=0;entryPerimeter=0;edgeStyle=orthogonalEdgeStyle;" edge="1" parent="1" source="DoY7gFXGSeMOmu--qUyc-10" target="DoY7gFXGSeMOmu--qUyc-21">
          <mxGeometry width="50" height="50" relative="1" as="geometry">
            <mxPoint x="400" y="470" as="sourcePoint" />
            <mxPoint x="450" y="420" as="targetPoint" />
          </mxGeometry>
        </mxCell>
        <mxCell id="DoY7gFXGSeMOmu--qUyc-40" value="Product" style="edgeLabel;html=1;align=center;verticalAlign=middle;resizable=0;points=[];" vertex="1" connectable="0" parent="DoY7gFXGSeMOmu--qUyc-39">
          <mxGeometry x="-0.8683" relative="1" as="geometry">
            <mxPoint x="58" as="offset" />
          </mxGeometry>
        </mxCell>
        <mxCell id="DoY7gFXGSeMOmu--qUyc-41" value="" style="endArrow=classic;html=1;rounded=0;exitX=0;exitY=0;exitDx=100;exitDy=32.5;exitPerimeter=0;entryX=0;entryY=0.25;entryDx=0;entryDy=0;" edge="1" parent="1" source="DoY7gFXGSeMOmu--qUyc-18" target="DoY7gFXGSeMOmu--qUyc-14">
          <mxGeometry width="50" height="50" relative="1" as="geometry">
            <mxPoint x="400" y="790" as="sourcePoint" />
            <mxPoint x="450" y="740" as="targetPoint" />
          </mxGeometry>
        </mxCell>
        <mxCell id="DoY7gFXGSeMOmu--qUyc-42" value="order" style="edgeLabel;html=1;align=center;verticalAlign=middle;resizable=0;points=[];" vertex="1" connectable="0" parent="DoY7gFXGSeMOmu--qUyc-41">
          <mxGeometry x="-0.1" y="-1" relative="1" as="geometry">
            <mxPoint x="16" y="-3" as="offset" />
          </mxGeometry>
        </mxCell>
        <mxCell id="DoY7gFXGSeMOmu--qUyc-43" value="" style="endArrow=classic;html=1;rounded=0;exitX=0.726;exitY=1;exitDx=0;exitDy=0;entryX=0.696;entryY=0;entryDx=0;entryDy=0;entryPerimeter=0;exitPerimeter=0;" edge="1" parent="1" source="DoY7gFXGSeMOmu--qUyc-14" target="DoY7gFXGSeMOmu--qUyc-17">
          <mxGeometry width="50" height="50" relative="1" as="geometry">
            <mxPoint x="400" y="790" as="sourcePoint" />
            <mxPoint x="450" y="740" as="targetPoint" />
          </mxGeometry>
        </mxCell>
        <mxCell id="DoY7gFXGSeMOmu--qUyc-45" value="order" style="edgeLabel;html=1;align=center;verticalAlign=middle;resizable=0;points=[];" vertex="1" connectable="0" parent="DoY7gFXGSeMOmu--qUyc-43">
          <mxGeometry x="-0.1418" y="1" relative="1" as="geometry">
            <mxPoint as="offset" />
          </mxGeometry>
        </mxCell>
        <mxCell id="DoY7gFXGSeMOmu--qUyc-46" value="" style="endArrow=classic;html=1;rounded=0;exitX=0.187;exitY=-0.008;exitDx=0;exitDy=0;exitPerimeter=0;entryX=0.262;entryY=0.996;entryDx=0;entryDy=0;entryPerimeter=0;" edge="1" parent="1" source="DoY7gFXGSeMOmu--qUyc-17" target="DoY7gFXGSeMOmu--qUyc-14">
          <mxGeometry width="50" height="50" relative="1" as="geometry">
            <mxPoint x="260" y="790" as="sourcePoint" />
            <mxPoint x="310" y="740" as="targetPoint" />
          </mxGeometry>
        </mxCell>
        <mxCell id="DoY7gFXGSeMOmu--qUyc-47" value="order status&lt;div&gt;update&lt;/div&gt;" style="edgeLabel;html=1;align=center;verticalAlign=middle;resizable=0;points=[];" vertex="1" connectable="0" parent="DoY7gFXGSeMOmu--qUyc-46">
          <mxGeometry x="-0.0208" y="1" relative="1" as="geometry">
            <mxPoint as="offset" />
          </mxGeometry>
        </mxCell>
        <mxCell id="DoY7gFXGSeMOmu--qUyc-48" value="" style="endArrow=classic;html=1;rounded=0;entryX=0;entryY=0;entryDx=100;entryDy=77.5;entryPerimeter=0;exitX=0;exitY=0.596;exitDx=0;exitDy=0;exitPerimeter=0;" edge="1" parent="1" source="DoY7gFXGSeMOmu--qUyc-14" target="DoY7gFXGSeMOmu--qUyc-18">
          <mxGeometry width="50" height="50" relative="1" as="geometry">
            <mxPoint x="279" y="718" as="sourcePoint" />
            <mxPoint x="370" y="700" as="targetPoint" />
          </mxGeometry>
        </mxCell>
        <mxCell id="DoY7gFXGSeMOmu--qUyc-49" value="status update&lt;div&gt;notification&lt;/div&gt;" style="edgeLabel;html=1;align=center;verticalAlign=middle;resizable=0;points=[];" vertex="1" connectable="0" parent="DoY7gFXGSeMOmu--qUyc-48">
          <mxGeometry x="0.0299" y="2" relative="1" as="geometry">
            <mxPoint x="13" as="offset" />
          </mxGeometry>
        </mxCell>
        <mxCell id="DoY7gFXGSeMOmu--qUyc-50" value="" style="endArrow=classic;startArrow=classic;html=1;rounded=0;exitX=1;exitY=0.25;exitDx=0;exitDy=0;entryX=0.855;entryY=1;entryDx=0;entryDy=-4.35;entryPerimeter=0;edgeStyle=orthogonalEdgeStyle;" edge="1" parent="1" source="DoY7gFXGSeMOmu--qUyc-14" target="DoY7gFXGSeMOmu--qUyc-21">
          <mxGeometry width="50" height="50" relative="1" as="geometry">
            <mxPoint x="780" y="690" as="sourcePoint" />
            <mxPoint x="830" y="640" as="targetPoint" />
          </mxGeometry>
        </mxCell>
        <mxCell id="DoY7gFXGSeMOmu--qUyc-51" value="Order" style="edgeLabel;html=1;align=center;verticalAlign=middle;resizable=0;points=[];" vertex="1" connectable="0" parent="DoY7gFXGSeMOmu--qUyc-50">
          <mxGeometry x="-0.8744" y="1" relative="1" as="geometry">
            <mxPoint x="48" y="-1" as="offset" />
          </mxGeometry>
        </mxCell>
        <mxCell id="DoY7gFXGSeMOmu--qUyc-52" value="&lt;font style=&quot;font-size: 18px;&quot;&gt;&lt;b&gt;DFD 0&lt;/b&gt;&lt;/font&gt;&lt;div&gt;&lt;font size=&quot;3&quot;&gt;&lt;b&gt;Queue-less: Food Truck Edition&lt;/b&gt;&lt;/font&gt;&lt;/div&gt;" style="text;html=1;align=center;verticalAlign=middle;whiteSpace=wrap;rounded=0;" vertex="1" parent="1">
          <mxGeometry x="160" y="20" width="440" height="30" as="geometry" />
        </mxCell>
      </root>
    </mxGraphModel>
  </diagram>
</mxfile>
